<mxfile host="app.diagrams.net" agent="Mozilla/5.0 (Windows NT 10.0; Win64; x64) AppleWebKit/537.36 (KHTML, like Gecko) Chrome/126.0.0.0 Safari/537.36" version="27.0.5">
  <diagram name="第 1 页" id="jWakQDqYZYw19ukcO5Oh">
    <mxGraphModel dx="2066" dy="1111" grid="1" gridSize="10" guides="1" tooltips="1" connect="1" arrows="1" fold="1" page="1" pageScale="1" pageWidth="827" pageHeight="1169" math="0" shadow="0">
      <root>
        <mxCell id="0" />
        <mxCell id="1" parent="0" />
        <mxCell id="kG3IC4H-SLwtvIdHB6Il-2" value="struct rte_lpm" style="swimlane;fontStyle=1;align=center;verticalAlign=top;childLayout=stackLayout;horizontal=1;startSize=26;horizontalStack=0;resizeParent=1;resizeParentMax=0;resizeLast=0;collapsible=1;marginBottom=0;whiteSpace=wrap;html=1;labelBorderColor=none;rounded=0;swimlaneLine=1;strokeWidth=2;fillColor=#ffe6cc;strokeColor=#d79b00;" parent="1" vertex="1">
          <mxGeometry x="60" y="320" width="290" height="208" as="geometry" />
        </mxCell>
        <mxCell id="kG3IC4H-SLwtvIdHB6Il-3" value="char name[32]&amp;nbsp; lpm模块名称" style="text;strokeColor=default;fillColor=none;align=left;verticalAlign=top;spacingLeft=4;spacingRight=4;overflow=hidden;rotatable=0;points=[[0,0.5],[1,0.5]];portConstraint=eastwest;whiteSpace=wrap;html=1;labelBorderColor=none;rounded=0;swimlaneLine=1;strokeWidth=2;" parent="kG3IC4H-SLwtvIdHB6Il-2" vertex="1">
          <mxGeometry y="26" width="290" height="26" as="geometry" />
        </mxCell>
        <mxCell id="kG3IC4H-SLwtvIdHB6Il-5" value="uint32_t max_rules&amp;nbsp; 网段条目最大规格。" style="text;strokeColor=default;fillColor=none;align=left;verticalAlign=top;spacingLeft=4;spacingRight=4;overflow=hidden;rotatable=0;points=[[0,0.5],[1,0.5]];portConstraint=eastwest;whiteSpace=wrap;html=1;labelBorderColor=none;rounded=0;swimlaneLine=1;strokeWidth=2;" parent="kG3IC4H-SLwtvIdHB6Il-2" vertex="1">
          <mxGeometry y="52" width="290" height="26" as="geometry" />
        </mxCell>
        <mxCell id="mVqiVs7Es1X-GM2BrdA6-1" value="uint32_t number_tbl8s&amp;nbsp; tbl8s 数量" style="text;strokeColor=default;fillColor=none;align=left;verticalAlign=top;spacingLeft=4;spacingRight=4;overflow=hidden;rotatable=0;points=[[0,0.5],[1,0.5]];portConstraint=eastwest;whiteSpace=wrap;html=1;labelBorderColor=none;rounded=0;swimlaneLine=1;strokeWidth=2;" parent="kG3IC4H-SLwtvIdHB6Il-2" vertex="1">
          <mxGeometry y="78" width="290" height="26" as="geometry" />
        </mxCell>
        <mxCell id="mVqiVs7Es1X-GM2BrdA6-2" value="struct rte_lpm_rule_info rule_info[32]" style="text;strokeColor=#b85450;fillColor=#f8cecc;align=left;verticalAlign=top;spacingLeft=4;spacingRight=4;overflow=hidden;rotatable=0;points=[[0,0.5],[1,0.5]];portConstraint=eastwest;whiteSpace=wrap;html=1;labelBorderColor=none;rounded=0;swimlaneLine=1;strokeWidth=2;" parent="kG3IC4H-SLwtvIdHB6Il-2" vertex="1">
          <mxGeometry y="104" width="290" height="26" as="geometry" />
        </mxCell>
        <mxCell id="mVqiVs7Es1X-GM2BrdA6-3" value="struct rte_lpm_tbl_entry tbl24[1&amp;lt;&amp;lt;24]" style="text;strokeColor=#82b366;fillColor=#d5e8d4;align=left;verticalAlign=top;spacingLeft=4;spacingRight=4;overflow=hidden;rotatable=0;points=[[0,0.5],[1,0.5]];portConstraint=eastwest;whiteSpace=wrap;html=1;labelBorderColor=none;rounded=0;swimlaneLine=1;strokeWidth=2;" parent="kG3IC4H-SLwtvIdHB6Il-2" vertex="1">
          <mxGeometry y="130" width="290" height="26" as="geometry" />
        </mxCell>
        <mxCell id="mVqiVs7Es1X-GM2BrdA6-4" value="struct rte_lpm_tbl_entry *tbl8" style="text;strokeColor=#2D7600;fillColor=#60a917;align=left;verticalAlign=top;spacingLeft=4;spacingRight=4;overflow=hidden;rotatable=0;points=[[0,0.5],[1,0.5]];portConstraint=eastwest;whiteSpace=wrap;html=1;labelBorderColor=none;rounded=0;swimlaneLine=1;strokeWidth=2;fontColor=#ffffff;" parent="kG3IC4H-SLwtvIdHB6Il-2" vertex="1">
          <mxGeometry y="156" width="290" height="26" as="geometry" />
        </mxCell>
        <mxCell id="mVqiVs7Es1X-GM2BrdA6-5" value="struct rte_lpm_rule *rules_tbl" style="text;strokeColor=#9673a6;fillColor=#e1d5e7;align=left;verticalAlign=top;spacingLeft=4;spacingRight=4;overflow=hidden;rotatable=0;points=[[0,0.5],[1,0.5]];portConstraint=eastwest;whiteSpace=wrap;html=1;labelBorderColor=none;rounded=0;swimlaneLine=1;strokeWidth=2;" parent="kG3IC4H-SLwtvIdHB6Il-2" vertex="1">
          <mxGeometry y="182" width="290" height="26" as="geometry" />
        </mxCell>
        <mxCell id="mVqiVs7Es1X-GM2BrdA6-6" value="struct rte_lpm_rule_info" style="swimlane;fontStyle=1;align=center;verticalAlign=top;childLayout=stackLayout;horizontal=1;startSize=26;horizontalStack=0;resizeParent=1;resizeParentMax=0;resizeLast=0;collapsible=1;marginBottom=0;whiteSpace=wrap;html=1;labelBorderColor=none;rounded=0;swimlaneLine=1;strokeWidth=2;fillColor=#f8cecc;strokeColor=#b85450;" parent="1" vertex="1">
          <mxGeometry x="460" y="320" width="290" height="78" as="geometry" />
        </mxCell>
        <mxCell id="mVqiVs7Es1X-GM2BrdA6-7" value="uint32_t first_rule" style="text;strokeColor=#b85450;fillColor=#f8cecc;align=left;verticalAlign=top;spacingLeft=4;spacingRight=4;overflow=hidden;rotatable=0;points=[[0,0.5],[1,0.5]];portConstraint=eastwest;whiteSpace=wrap;html=1;labelBorderColor=none;rounded=0;swimlaneLine=1;strokeWidth=2;" parent="mVqiVs7Es1X-GM2BrdA6-6" vertex="1">
          <mxGeometry y="26" width="290" height="26" as="geometry" />
        </mxCell>
        <mxCell id="mVqiVs7Es1X-GM2BrdA6-8" value="uint32_t used_rules;" style="text;strokeColor=#b85450;fillColor=#f8cecc;align=left;verticalAlign=top;spacingLeft=4;spacingRight=4;overflow=hidden;rotatable=0;points=[[0,0.5],[1,0.5]];portConstraint=eastwest;whiteSpace=wrap;html=1;labelBorderColor=none;rounded=0;swimlaneLine=1;strokeWidth=2;" parent="mVqiVs7Es1X-GM2BrdA6-6" vertex="1">
          <mxGeometry y="52" width="290" height="26" as="geometry" />
        </mxCell>
        <mxCell id="mVqiVs7Es1X-GM2BrdA6-14" style="edgeStyle=orthogonalEdgeStyle;rounded=0;orthogonalLoop=1;jettySize=auto;html=1;entryX=0.002;entryY=0.12;entryDx=0;entryDy=0;entryPerimeter=0;" parent="1" source="mVqiVs7Es1X-GM2BrdA6-2" target="mVqiVs7Es1X-GM2BrdA6-6" edge="1">
          <mxGeometry relative="1" as="geometry" />
        </mxCell>
        <mxCell id="mVqiVs7Es1X-GM2BrdA6-15" value="&lt;span style=&quot;font-weight: 400;&quot;&gt;struct rte_lpm_tbl_entry&lt;/span&gt;" style="swimlane;fontStyle=1;align=center;verticalAlign=top;childLayout=stackLayout;horizontal=1;startSize=26;horizontalStack=0;resizeParent=1;resizeParentMax=0;resizeLast=0;collapsible=1;marginBottom=0;whiteSpace=wrap;html=1;labelBorderColor=none;rounded=0;swimlaneLine=1;strokeWidth=2;fillColor=#f8cecc;strokeColor=#b85450;" parent="1" vertex="1">
          <mxGeometry x="480" y="510" width="290" height="130" as="geometry" />
        </mxCell>
        <mxCell id="mVqiVs7Es1X-GM2BrdA6-16" value="uint32_t depth&amp;nbsp; &amp;nbsp; &amp;nbsp; &amp;nbsp;:6" style="text;strokeColor=#b85450;fillColor=#f8cecc;align=left;verticalAlign=top;spacingLeft=4;spacingRight=4;overflow=hidden;rotatable=0;points=[[0,0.5],[1,0.5]];portConstraint=eastwest;whiteSpace=wrap;html=1;labelBorderColor=none;rounded=0;swimlaneLine=1;strokeWidth=2;" parent="mVqiVs7Es1X-GM2BrdA6-15" vertex="1">
          <mxGeometry y="26" width="290" height="26" as="geometry" />
        </mxCell>
        <mxCell id="mVqiVs7Es1X-GM2BrdA6-17" value="uint32_t valid_group :1" style="text;strokeColor=#b85450;fillColor=#f8cecc;align=left;verticalAlign=top;spacingLeft=4;spacingRight=4;overflow=hidden;rotatable=0;points=[[0,0.5],[1,0.5]];portConstraint=eastwest;whiteSpace=wrap;html=1;labelBorderColor=none;rounded=0;swimlaneLine=1;strokeWidth=2;" parent="mVqiVs7Es1X-GM2BrdA6-15" vertex="1">
          <mxGeometry y="52" width="290" height="26" as="geometry" />
        </mxCell>
        <mxCell id="mVqiVs7Es1X-GM2BrdA6-18" value="uint32_t valid&amp;nbsp; &amp;nbsp; &amp;nbsp; &amp;nbsp;:1" style="text;strokeColor=#b85450;fillColor=#f8cecc;align=left;verticalAlign=top;spacingLeft=4;spacingRight=4;overflow=hidden;rotatable=0;points=[[0,0.5],[1,0.5]];portConstraint=eastwest;whiteSpace=wrap;html=1;labelBorderColor=none;rounded=0;swimlaneLine=1;strokeWidth=2;" parent="mVqiVs7Es1X-GM2BrdA6-15" vertex="1">
          <mxGeometry y="78" width="290" height="26" as="geometry" />
        </mxCell>
        <mxCell id="mVqiVs7Es1X-GM2BrdA6-19" value="uint32_t next_hop&amp;nbsp; &amp;nbsp; :24" style="text;strokeColor=#b85450;fillColor=#f8cecc;align=left;verticalAlign=top;spacingLeft=4;spacingRight=4;overflow=hidden;rotatable=0;points=[[0,0.5],[1,0.5]];portConstraint=eastwest;whiteSpace=wrap;html=1;labelBorderColor=none;rounded=0;swimlaneLine=1;strokeWidth=2;" parent="mVqiVs7Es1X-GM2BrdA6-15" vertex="1">
          <mxGeometry y="104" width="290" height="26" as="geometry" />
        </mxCell>
        <mxCell id="mVqiVs7Es1X-GM2BrdA6-20" style="edgeStyle=orthogonalEdgeStyle;rounded=0;orthogonalLoop=1;jettySize=auto;html=1;entryX=0.009;entryY=0.144;entryDx=0;entryDy=0;entryPerimeter=0;" parent="1" source="mVqiVs7Es1X-GM2BrdA6-3" target="mVqiVs7Es1X-GM2BrdA6-15" edge="1">
          <mxGeometry relative="1" as="geometry" />
        </mxCell>
        <mxCell id="mVqiVs7Es1X-GM2BrdA6-21" value="&lt;span style=&quot;font-weight: 400;&quot;&gt;struct rte_lpm_rule&lt;/span&gt;" style="swimlane;fontStyle=1;align=center;verticalAlign=top;childLayout=stackLayout;horizontal=1;startSize=26;horizontalStack=0;resizeParent=1;resizeParentMax=0;resizeLast=0;collapsible=1;marginBottom=0;whiteSpace=wrap;html=1;labelBorderColor=none;rounded=0;swimlaneLine=1;strokeWidth=2;fillColor=#e1d5e7;strokeColor=#9673a6;" parent="1" vertex="1">
          <mxGeometry x="480" y="700" width="290" height="78" as="geometry" />
        </mxCell>
        <mxCell id="mVqiVs7Es1X-GM2BrdA6-22" value="uint32_t ip;" style="text;strokeColor=#666666;fillColor=#f5f5f5;align=left;verticalAlign=top;spacingLeft=4;spacingRight=4;overflow=hidden;rotatable=0;points=[[0,0.5],[1,0.5]];portConstraint=eastwest;whiteSpace=wrap;html=1;labelBorderColor=none;rounded=0;swimlaneLine=1;strokeWidth=2;fontColor=#333333;" parent="mVqiVs7Es1X-GM2BrdA6-21" vertex="1">
          <mxGeometry y="26" width="290" height="26" as="geometry" />
        </mxCell>
        <mxCell id="mVqiVs7Es1X-GM2BrdA6-23" value="uint32_t next_hop;" style="text;strokeColor=#666666;fillColor=#f5f5f5;align=left;verticalAlign=top;spacingLeft=4;spacingRight=4;overflow=hidden;rotatable=0;points=[[0,0.5],[1,0.5]];portConstraint=eastwest;whiteSpace=wrap;html=1;labelBorderColor=none;rounded=0;swimlaneLine=1;strokeWidth=2;fontColor=#333333;" parent="mVqiVs7Es1X-GM2BrdA6-21" vertex="1">
          <mxGeometry y="52" width="290" height="26" as="geometry" />
        </mxCell>
        <mxCell id="mVqiVs7Es1X-GM2BrdA6-26" style="edgeStyle=orthogonalEdgeStyle;rounded=0;orthogonalLoop=1;jettySize=auto;html=1;entryX=0.002;entryY=0.137;entryDx=0;entryDy=0;entryPerimeter=0;" parent="1" source="mVqiVs7Es1X-GM2BrdA6-5" target="mVqiVs7Es1X-GM2BrdA6-21" edge="1">
          <mxGeometry relative="1" as="geometry" />
        </mxCell>
      </root>
    </mxGraphModel>
  </diagram>
</mxfile>
